<svg width="17" height="16" viewBox="0 0 17 16" fill="none" xmlns="http://www.w3.org/2000/svg">
<path d="M8.4974 9.33317C9.23378 9.33317 9.83073 8.73622 9.83073 7.99984C9.83073 7.26346 9.23378 6.6665 8.4974 6.6665C7.76102 6.6665 7.16406 7.26346 7.16406 7.99984C7.16406 8.73622 7.76102 9.33317 8.4974 9.33317Z" stroke="#FF4444" stroke-linecap="round" stroke-linejoin="round"/>
<path d="M11.3278 5.17329C11.6998 5.54478 11.9948 5.98593 12.1961 6.47153C12.3974 6.95712 12.501 7.47763 12.501 8.00329C12.501 8.52895 12.3974 9.04946 12.1961 9.53505C11.9948 10.0206 11.6998 10.4618 11.3278 10.8333M5.67451 10.8266C5.30261 10.4551 5.00757 10.014 4.80628 9.52838C4.60498 9.04279 4.50137 8.52228 4.50137 7.99662C4.50137 7.47096 4.60498 6.95045 4.80628 6.46486C5.00757 5.97927 5.30261 5.53811 5.67451 5.16662M13.2145 3.28662C14.4643 4.53681 15.1664 6.23219 15.1664 7.99995C15.1664 9.76772 14.4643 11.4631 13.2145 12.7133M3.78785 12.7133C2.53804 11.4631 1.83594 9.76772 1.83594 7.99995C1.83594 6.23219 2.53804 4.53681 3.78785 3.28662" stroke="#FF4444" stroke-linecap="round" stroke-linejoin="round"/>
</svg>
